<?xml version="1.0" encoding="UTF-8" standalone="no"?>
<!DOCTYPE svg PUBLIC "-//W3C//DTD SVG 1.1//EN"
 "http://www.w3.org/Graphics/SVG/1.1/DTD/svg11.dtd">
<!-- Generated by graphviz version 14.1.1 (20251213.1925)
 -->
<!-- Title: clients Pages: 1 -->
<svg width="205pt" height="206pt"
 viewBox="0.00 0.00 205.00 206.00" xmlns="http://www.w3.org/2000/svg" xmlns:xlink="http://www.w3.org/1999/xlink">
<g id="graph0" class="graph" transform="scale(1 1) rotate(0) translate(4 202)">
<title>clients</title>
<!-- router -->
<g id="node1" class="node">
<title>router</title>
<path fill="#dbeafe" stroke="#1e40af" stroke-width="1.5" d="M185,-117C185,-117 145.75,-117 145.75,-117 139.75,-117 133.75,-111 133.75,-105 133.75,-105 133.75,-93 133.75,-93 133.75,-87 139.75,-81 145.75,-81 145.75,-81 185,-81 185,-81 191,-81 197,-87 197,-93 197,-93 197,-105 197,-105 197,-111 191,-117 185,-117"/>
<text xml:space="preserve" text-anchor="middle" x="165.38" y="-100.35" font-family="Helvetica,sans-Serif" font-size="12.00" fill="#1e3a8a">Router</text>
<text xml:space="preserve" text-anchor="middle" x="165.38" y="-87.6" font-family="Helvetica,sans-Serif" font-size="12.00" fill="#1e3a8a">(zenohd)</text>
</g>
<!-- c1 -->
<g id="node2" class="node">
<title>c1</title>
<path fill="#eef2ff" stroke="#4338ca" stroke-width="1.5" d="M73.75,-198C73.75,-198 24,-198 24,-198 18,-198 12,-192 12,-186 12,-186 12,-174 12,-174 12,-168 18,-162 24,-162 24,-162 73.75,-162 73.75,-162 79.75,-162 85.75,-168 85.75,-174 85.75,-174 85.75,-186 85.75,-186 85.75,-192 79.75,-198 73.75,-198"/>
<text xml:space="preserve" text-anchor="middle" x="48.88" y="-174.97" font-family="Helvetica,sans-Serif" font-size="12.00" fill="#312e81">IoT Device</text>
</g>
<!-- c1&#45;&gt;router -->
<g id="edge1" class="edge">
<title>c1&#45;&gt;router</title>
<path fill="none" stroke="#4338ca" stroke-width="1.5" d="M84.56,-161.36C89.07,-158.67 93.57,-155.84 97.75,-153 113.63,-142.2 130.42,-128.57 143.18,-117.71"/>
</g>
<!-- c2 -->
<g id="node3" class="node">
<title>c2</title>
<path fill="#eef2ff" stroke="#4338ca" stroke-width="1.5" d="M79,-144C79,-144 18.75,-144 18.75,-144 12.75,-144 6.75,-138 6.75,-132 6.75,-132 6.75,-120 6.75,-120 6.75,-114 12.75,-108 18.75,-108 18.75,-108 79,-108 79,-108 85,-108 91,-114 91,-120 91,-120 91,-132 91,-132 91,-138 85,-144 79,-144"/>
<text xml:space="preserve" text-anchor="middle" x="48.88" y="-120.97" font-family="Helvetica,sans-Serif" font-size="12.00" fill="#312e81">Mobile Node</text>
</g>
<!-- c2&#45;&gt;router -->
<g id="edge2" class="edge">
<title>c2&#45;&gt;router</title>
<path fill="none" stroke="#4338ca" stroke-width="1.5" d="M91.54,-116.18C105.35,-112.92 120.47,-109.35 133.34,-106.32"/>
</g>
<!-- c3 -->
<g id="node4" class="node">
<title>c3</title>
<path fill="#eef2ff" stroke="#4338ca" stroke-width="1.5" d="M85.75,-90C85.75,-90 12,-90 12,-90 6,-90 0,-84 0,-78 0,-78 0,-66 0,-66 0,-60 6,-54 12,-54 12,-54 85.75,-54 85.75,-54 91.75,-54 97.75,-60 97.75,-66 97.75,-66 97.75,-78 97.75,-78 97.75,-84 91.75,-90 85.75,-90"/>
<text xml:space="preserve" text-anchor="middle" x="48.88" y="-66.97" font-family="Helvetica,sans-Serif" font-size="12.00" fill="#312e81">Cloud Function</text>
</g>
<!-- c3&#45;&gt;router -->
<g id="edge3" class="edge">
<title>c3&#45;&gt;router</title>
<path fill="none" stroke="#4338ca" stroke-width="1.5" d="M98.43,-83.45C110.14,-86.21 122.33,-89.09 133.01,-91.6"/>
</g>
<!-- c4 -->
<g id="node5" class="node">
<title>c4</title>
<path fill="#eef2ff" stroke="#4338ca" stroke-width="1.5" d="M74.5,-36C74.5,-36 23.25,-36 23.25,-36 17.25,-36 11.25,-30 11.25,-24 11.25,-24 11.25,-12 11.25,-12 11.25,-6 17.25,0 23.25,0 23.25,0 74.5,0 74.5,0 80.5,0 86.5,-6 86.5,-12 86.5,-12 86.5,-24 86.5,-24 86.5,-30 80.5,-36 74.5,-36"/>
<text xml:space="preserve" text-anchor="middle" x="48.88" y="-12.97" font-family="Helvetica,sans-Serif" font-size="12.00" fill="#312e81">Dashboard</text>
</g>
<!-- c4&#45;&gt;router -->
<g id="edge4" class="edge">
<title>c4&#45;&gt;router</title>
<path fill="none" stroke="#4338ca" stroke-width="1.5" d="M84.56,-36.64C89.07,-39.33 93.57,-42.16 97.75,-45 113.63,-55.8 130.42,-69.43 143.18,-80.29"/>
</g>
</g>
</svg>
