<?xml version="1.0" encoding="UTF-8" standalone="no"?>
<!DOCTYPE svg PUBLIC "-//W3C//DTD SVG 1.1//EN"
 "http://www.w3.org/Graphics/SVG/1.1/DTD/svg11.dtd">
<!-- Generated by graphviz version 14.1.1 (20251213.1925)
 -->
<!-- Title: geo Pages: 1 -->
<svg width="422pt" height="190pt"
 viewBox="0.00 0.00 422.00 190.00" xmlns="http://www.w3.org/2000/svg" xmlns:xlink="http://www.w3.org/1999/xlink">
<g id="graph0" class="graph" transform="scale(1 1) rotate(0) translate(4 186)">
<title>geo</title>
<!-- dcus -->
<g id="node1" class="node">
<title>dcus</title>
<path fill="#172554" stroke="#818cf8" stroke-width="1.5" d="M150.38,-182C150.38,-182 91.62,-182 91.62,-182 85.62,-182 79.62,-176 79.62,-170 79.62,-170 79.62,-158 79.62,-158 79.62,-152 85.62,-146 91.62,-146 91.62,-146 150.38,-146 150.38,-146 156.38,-146 162.38,-152 162.38,-158 162.38,-158 162.38,-170 162.38,-170 162.38,-176 156.38,-182 150.38,-182"/>
<text xml:space="preserve" text-anchor="middle" x="121" y="-165.55" font-family="Helvetica,sans-Serif" font-size="11.00" fill="#93c5fd">DC · US&#45;East</text>
<text xml:space="preserve" text-anchor="middle" x="121" y="-153.55" font-family="Helvetica,sans-Serif" font-size="11.00" fill="#93c5fd">(Router)</text>
</g>
<!-- dceu -->
<g id="node2" class="node">
<title>dceu</title>
<path fill="#172554" stroke="#818cf8" stroke-width="1.5" d="M342.88,-182C342.88,-182 281.12,-182 281.12,-182 275.12,-182 269.12,-176 269.12,-170 269.12,-170 269.12,-158 269.12,-158 269.12,-152 275.12,-146 281.12,-146 281.12,-146 342.88,-146 342.88,-146 348.88,-146 354.88,-152 354.88,-158 354.88,-158 354.88,-170 354.88,-170 354.88,-176 348.88,-182 342.88,-182"/>
<text xml:space="preserve" text-anchor="middle" x="312" y="-165.55" font-family="Helvetica,sans-Serif" font-size="11.00" fill="#93c5fd">DC · EU&#45;West</text>
<text xml:space="preserve" text-anchor="middle" x="312" y="-153.55" font-family="Helvetica,sans-Serif" font-size="11.00" fill="#93c5fd">(Router)</text>
</g>
<!-- dcus&#45;&gt;dceu -->
<g id="edge1" class="edge">
<title>dcus&#45;&gt;dceu</title>
<path fill="none" stroke="#818cf8" stroke-width="1.5" d="M162.92,-164C194.21,-164 236.86,-164 268.53,-164"/>
<text xml:space="preserve" text-anchor="middle" x="215.75" y="-168.2" font-family="Helvetica,sans-Serif" font-size="9.00" fill="#94a3b8"> &#160;inter&#45;DC backbone &#160;</text>
</g>
<!-- enyc -->
<g id="node3" class="node">
<title>enyc</title>
<path fill="#1e1b4b" stroke="#818cf8" stroke-width="1.5" d="M125.25,-109C125.25,-109 74.75,-109 74.75,-109 68.75,-109 62.75,-103 62.75,-97 62.75,-97 62.75,-85 62.75,-85 62.75,-79 68.75,-73 74.75,-73 74.75,-73 125.25,-73 125.25,-73 131.25,-73 137.25,-79 137.25,-85 137.25,-85 137.25,-97 137.25,-97 137.25,-103 131.25,-109 125.25,-109"/>
<text xml:space="preserve" text-anchor="middle" x="100" y="-92.55" font-family="Helvetica,sans-Serif" font-size="11.00" fill="#c7d2fe">Edge · NYC</text>
<text xml:space="preserve" text-anchor="middle" x="100" y="-80.55" font-family="Helvetica,sans-Serif" font-size="11.00" fill="#c7d2fe">(Router)</text>
</g>
<!-- dcus&#45;&gt;enyc -->
<g id="edge2" class="edge">
<title>dcus&#45;&gt;enyc</title>
<path fill="none" stroke="#818cf8" stroke-width="1.5" d="M115.81,-145.45C112.55,-134.44 108.38,-120.32 105.13,-109.35"/>
</g>
<!-- epar -->
<g id="node4" class="node">
<title>epar</title>
<path fill="#1e1b4b" stroke="#818cf8" stroke-width="1.5" d="M339.62,-109C339.62,-109 288.38,-109 288.38,-109 282.38,-109 276.38,-103 276.38,-97 276.38,-97 276.38,-85 276.38,-85 276.38,-79 282.38,-73 288.38,-73 288.38,-73 339.62,-73 339.62,-73 345.62,-73 351.62,-79 351.62,-85 351.62,-85 351.62,-97 351.62,-97 351.62,-103 345.62,-109 339.62,-109"/>
<text xml:space="preserve" text-anchor="middle" x="314" y="-92.55" font-family="Helvetica,sans-Serif" font-size="11.00" fill="#c7d2fe">Edge · Paris</text>
<text xml:space="preserve" text-anchor="middle" x="314" y="-80.55" font-family="Helvetica,sans-Serif" font-size="11.00" fill="#c7d2fe">(Router)</text>
</g>
<!-- dceu&#45;&gt;epar -->
<g id="edge3" class="edge">
<title>dceu&#45;&gt;epar</title>
<path fill="none" stroke="#818cf8" stroke-width="1.5" d="M312.49,-145.45C312.8,-134.44 313.2,-120.32 313.51,-109.35"/>
</g>
<!-- iot1 -->
<g id="node5" class="node">
<title>iot1</title>
<path fill="#1e1b4b" stroke="#818cf8" stroke-width="1.5" d="M42,-36C42,-36 12,-36 12,-36 6,-36 0,-30 0,-24 0,-24 0,-12 0,-12 0,-6 6,0 12,0 12,0 42,0 42,0 48,0 54,-6 54,-12 54,-12 54,-24 54,-24 54,-30 48,-36 42,-36"/>
<text xml:space="preserve" text-anchor="middle" x="27" y="-13.55" font-family="Helvetica,sans-Serif" font-size="11.00" fill="#c7d2fe">IoT</text>
</g>
<!-- enyc&#45;&gt;iot1 -->
<g id="edge4" class="edge">
<title>enyc&#45;&gt;iot1</title>
<path fill="none" stroke="#818cf8" stroke-width="1.5" d="M81.96,-72.45C70.72,-61.53 56.33,-47.53 45.09,-36.59"/>
</g>
<!-- rob1 -->
<g id="node6" class="node">
<title>rob1</title>
<path fill="#1e1b4b" stroke="#818cf8" stroke-width="1.5" d="M114,-36C114,-36 84,-36 84,-36 78,-36 72,-30 72,-24 72,-24 72,-12 72,-12 72,-6 78,0 84,0 84,0 114,0 114,0 120,0 126,-6 126,-12 126,-12 126,-24 126,-24 126,-30 120,-36 114,-36"/>
<text xml:space="preserve" text-anchor="middle" x="99" y="-13.55" font-family="Helvetica,sans-Serif" font-size="11.00" fill="#c7d2fe">Robot</text>
</g>
<!-- enyc&#45;&gt;rob1 -->
<g id="edge5" class="edge">
<title>enyc&#45;&gt;rob1</title>
<path fill="none" stroke="#818cf8" stroke-width="1.5" d="M99.75,-72.45C99.6,-61.44 99.4,-47.32 99.24,-36.35"/>
</g>
<!-- veh1 -->
<g id="node7" class="node">
<title>veh1</title>
<path fill="#1e1b4b" stroke="#818cf8" stroke-width="1.5" d="M186,-36C186,-36 156,-36 156,-36 150,-36 144,-30 144,-24 144,-24 144,-12 144,-12 144,-6 150,0 156,0 156,0 186,0 186,0 192,0 198,-6 198,-12 198,-12 198,-24 198,-24 198,-30 192,-36 186,-36"/>
<text xml:space="preserve" text-anchor="middle" x="171" y="-13.55" font-family="Helvetica,sans-Serif" font-size="11.00" fill="#c7d2fe">Vehicle</text>
</g>
<!-- enyc&#45;&gt;veh1 -->
<g id="edge6" class="edge">
<title>enyc&#45;&gt;veh1</title>
<path fill="none" stroke="#818cf8" stroke-width="1.5" d="M117.55,-72.45C128.56,-61.44 142.68,-47.32 153.65,-36.35"/>
</g>
<!-- iot2 -->
<g id="node8" class="node">
<title>iot2</title>
<path fill="#1e1b4b" stroke="#818cf8" stroke-width="1.5" d="M258,-36C258,-36 228,-36 228,-36 222,-36 216,-30 216,-24 216,-24 216,-12 216,-12 216,-6 222,0 228,0 228,0 258,0 258,0 264,0 270,-6 270,-12 270,-12 270,-24 270,-24 270,-30 264,-36 258,-36"/>
<text xml:space="preserve" text-anchor="middle" x="243" y="-13.55" font-family="Helvetica,sans-Serif" font-size="11.00" fill="#c7d2fe">IoT</text>
</g>
<!-- epar&#45;&gt;iot2 -->
<g id="edge7" class="edge">
<title>epar&#45;&gt;iot2</title>
<path fill="none" stroke="#818cf8" stroke-width="1.5" d="M296.45,-72.45C285.44,-61.44 271.32,-47.32 260.35,-36.35"/>
</g>
<!-- rob2 -->
<g id="node9" class="node">
<title>rob2</title>
<path fill="#1e1b4b" stroke="#818cf8" stroke-width="1.5" d="M330,-36C330,-36 300,-36 300,-36 294,-36 288,-30 288,-24 288,-24 288,-12 288,-12 288,-6 294,0 300,0 300,0 330,0 330,0 336,0 342,-6 342,-12 342,-12 342,-24 342,-24 342,-30 336,-36 330,-36"/>
<text xml:space="preserve" text-anchor="middle" x="315" y="-13.55" font-family="Helvetica,sans-Serif" font-size="11.00" fill="#c7d2fe">Robot</text>
</g>
<!-- epar&#45;&gt;rob2 -->
<g id="edge8" class="edge">
<title>epar&#45;&gt;rob2</title>
<path fill="none" stroke="#818cf8" stroke-width="1.5" d="M314.25,-72.45C314.4,-61.44 314.6,-47.32 314.76,-36.35"/>
</g>
<!-- veh2 -->
<g id="node10" class="node">
<title>veh2</title>
<path fill="#1e1b4b" stroke="#818cf8" stroke-width="1.5" d="M402,-36C402,-36 372,-36 372,-36 366,-36 360,-30 360,-24 360,-24 360,-12 360,-12 360,-6 366,0 372,0 372,0 402,0 402,0 408,0 414,-6 414,-12 414,-12 414,-24 414,-24 414,-30 408,-36 402,-36"/>
<text xml:space="preserve" text-anchor="middle" x="387" y="-13.55" font-family="Helvetica,sans-Serif" font-size="11.00" fill="#c7d2fe">Vehicle</text>
</g>
<!-- epar&#45;&gt;veh2 -->
<g id="edge9" class="edge">
<title>epar&#45;&gt;veh2</title>
<path fill="none" stroke="#818cf8" stroke-width="1.5" d="M332.04,-72.45C343.28,-61.53 357.67,-47.53 368.91,-36.59"/>
</g>
</g>
</svg>
