<?xml version="1.0" encoding="UTF-8" standalone="no"?>
<!DOCTYPE svg PUBLIC "-//W3C//DTD SVG 1.1//EN"
 "http://www.w3.org/Graphics/SVG/1.1/DTD/svg11.dtd">
<!-- Generated by graphviz version 14.1.1 (20251213.1925)
 -->
<!-- Title: scout Pages: 1 -->
<svg width="238pt" height="180pt"
 viewBox="0.00 0.00 238.00 180.00" xmlns="http://www.w3.org/2000/svg" xmlns:xlink="http://www.w3.org/1999/xlink">
<g id="graph0" class="graph" transform="scale(1 1) rotate(0) translate(4 176)">
<title>scout</title>
<!-- newnode -->
<g id="node1" class="node">
<title>newnode</title>
<path fill="#172554" stroke="#818cf8" stroke-width="1.5" d="M55.75,-106C55.75,-106 12,-106 12,-106 6,-106 0,-100 0,-94 0,-94 0,-82 0,-82 0,-76 6,-70 12,-70 12,-70 55.75,-70 55.75,-70 61.75,-70 67.75,-76 67.75,-82 67.75,-82 67.75,-94 67.75,-94 67.75,-100 61.75,-106 55.75,-106"/>
<text xml:space="preserve" text-anchor="middle" x="33.88" y="-83.55" font-family="Helvetica,sans-Serif" font-size="11.00" fill="#93c5fd">New Node</text>
</g>
<!-- pa -->
<g id="node2" class="node">
<title>pa</title>
<path fill="#1e1b4b" stroke="#818cf8" stroke-width="1.5" d="M217.75,-172C217.75,-172 187.75,-172 187.75,-172 181.75,-172 175.75,-166 175.75,-160 175.75,-160 175.75,-148 175.75,-148 175.75,-142 181.75,-136 187.75,-136 187.75,-136 217.75,-136 217.75,-136 223.75,-136 229.75,-142 229.75,-148 229.75,-148 229.75,-160 229.75,-160 229.75,-166 223.75,-172 217.75,-172"/>
<text xml:space="preserve" text-anchor="middle" x="202.75" y="-149.55" font-family="Helvetica,sans-Serif" font-size="11.00" fill="#c7d2fe">Peer A</text>
</g>
<!-- newnode&#45;&gt;pa -->
<g id="edge1" class="edge">
<title>newnode&#45;&gt;pa</title>
<path fill="none" stroke="#818cf8" stroke-width="1.5" d="M44.63,-106.58C53.31,-120.98 67.46,-139.95 85.75,-149 109.64,-160.82 139.8,-161.76 163.38,-159.91"/>
<polygon fill="#818cf8" stroke="#818cf8" stroke-width="1.5" points="163.53,-163.41 173.12,-158.92 162.82,-156.45 163.53,-163.41"/>
<text xml:space="preserve" text-anchor="middle" x="121.75" y="-161.84" font-family="Helvetica,sans-Serif" font-size="9.00" fill="#94a3b8">Scout (multicast)</text>
</g>
<!-- pb -->
<g id="node3" class="node">
<title>pb</title>
<path fill="#1e1b4b" stroke="#818cf8" stroke-width="1.5" d="M217.75,-96C217.75,-96 187.75,-96 187.75,-96 181.75,-96 175.75,-90 175.75,-84 175.75,-84 175.75,-72 175.75,-72 175.75,-66 181.75,-60 187.75,-60 187.75,-60 217.75,-60 217.75,-60 223.75,-60 229.75,-66 229.75,-72 229.75,-72 229.75,-84 229.75,-84 229.75,-90 223.75,-96 217.75,-96"/>
<text xml:space="preserve" text-anchor="middle" x="202.75" y="-73.55" font-family="Helvetica,sans-Serif" font-size="11.00" fill="#c7d2fe">Peer B</text>
</g>
<!-- newnode&#45;&gt;pb -->
<g id="edge2" class="edge">
<title>newnode&#45;&gt;pb</title>
<path fill="none" stroke="#818cf8" stroke-width="1.5" d="M68.29,-87.29C93.02,-86.61 127.52,-85.33 157.75,-83 159.52,-82.86 161.33,-82.71 163.16,-82.55"/>
<polygon fill="#818cf8" stroke="#818cf8" stroke-width="1.5" points="163.4,-86.04 173,-81.55 162.7,-79.08 163.4,-86.04"/>
<text xml:space="preserve" text-anchor="middle" x="121.75" y="-87.89" font-family="Helvetica,sans-Serif" font-size="9.00" fill="#94a3b8">Scout (multicast)</text>
</g>
<!-- rt -->
<g id="node4" class="node">
<title>rt</title>
<path fill="#1e1b4b" stroke="#818cf8" stroke-width="1.5" d="M217.75,-36C217.75,-36 187.75,-36 187.75,-36 181.75,-36 175.75,-30 175.75,-24 175.75,-24 175.75,-12 175.75,-12 175.75,-6 181.75,0 187.75,0 187.75,0 217.75,0 217.75,0 223.75,0 229.75,-6 229.75,-12 229.75,-12 229.75,-24 229.75,-24 229.75,-30 223.75,-36 217.75,-36"/>
<text xml:space="preserve" text-anchor="middle" x="202.75" y="-13.55" font-family="Helvetica,sans-Serif" font-size="11.00" fill="#c7d2fe">Router</text>
</g>
<!-- newnode&#45;&gt;rt -->
<g id="edge3" class="edge">
<title>newnode&#45;&gt;rt</title>
<path fill="none" stroke="#818cf8" stroke-width="1.5" d="M62.19,-69.29C69.63,-64.66 77.83,-59.96 85.75,-56.25 110.82,-44.5 140.48,-34.79 163.54,-28.09"/>
<polygon fill="#818cf8" stroke="#818cf8" stroke-width="1.5" points="164.41,-31.48 173.08,-25.4 162.5,-24.75 164.41,-31.48"/>
<text xml:space="preserve" text-anchor="middle" x="121.75" y="-57.45" font-family="Helvetica,sans-Serif" font-size="9.00" fill="#94a3b8">Scout (multicast)</text>
</g>
<!-- pa&#45;&gt;newnode -->
<g id="edge4" class="edge">
<title>pa&#45;&gt;newnode</title>
<path fill="none" stroke="#a5b4fc" stroke-width="1.5" stroke-dasharray="5,2" d="M175.03,-143.43C149.31,-133.26 109.92,-117.68 79.44,-105.63"/>
<polygon fill="#a5b4fc" stroke="#a5b4fc" stroke-width="1.5" points="80.94,-102.46 70.35,-102.03 78.37,-108.97 80.94,-102.46"/>
<text xml:space="preserve" text-anchor="middle" x="121.75" y="-137.5" font-family="Helvetica,sans-Serif" font-size="9.00" fill="#94a3b8">Hello + endpoints</text>
</g>
<!-- pb&#45;&gt;newnode -->
<g id="edge5" class="edge">
<title>pb&#45;&gt;newnode</title>
<path fill="none" stroke="#a5b4fc" stroke-width="1.5" stroke-dasharray="5,2" d="M175.34,-73.72C151.73,-70.59 116.25,-67.64 85.75,-72.25 83.98,-72.52 82.18,-72.84 80.38,-73.19"/>
<polygon fill="#a5b4fc" stroke="#a5b4fc" stroke-width="1.5" points="79.59,-69.78 70.69,-75.52 81.23,-76.59 79.59,-69.78"/>
<text xml:space="preserve" text-anchor="middle" x="121.75" y="-73.45" font-family="Helvetica,sans-Serif" font-size="9.00" fill="#94a3b8">Hello + endpoints</text>
</g>
<!-- rt&#45;&gt;newnode -->
<g id="edge6" class="edge">
<title>rt&#45;&gt;newnode</title>
<path fill="none" stroke="#a5b4fc" stroke-width="1.5" stroke-dasharray="5,2" d="M175.26,-10.8C150.63,-5.63 113.66,-1.82 85.75,-16.25 68.5,-25.16 55.84,-42.92 47.46,-58.54"/>
<polygon fill="#a5b4fc" stroke="#a5b4fc" stroke-width="1.5" points="44.4,-56.82 43.12,-67.34 50.68,-59.92 44.4,-56.82"/>
<text xml:space="preserve" text-anchor="middle" x="121.75" y="-17.45" font-family="Helvetica,sans-Serif" font-size="9.00" fill="#94a3b8">Hello + endpoints</text>
</g>
</g>
</svg>
