<?xml version="1.0" encoding="UTF-8" standalone="no"?>
<!DOCTYPE svg PUBLIC "-//W3C//DTD SVG 1.1//EN"
 "http://www.w3.org/Graphics/SVG/1.1/DTD/svg11.dtd">
<!-- Generated by graphviz version 14.1.1 (20251213.1925)
 -->
<!-- Title: shm Pages: 1 -->
<svg width="539pt" height="147pt"
 viewBox="0.00 0.00 539.00 147.00" xmlns="http://www.w3.org/2000/svg" xmlns:xlink="http://www.w3.org/1999/xlink">
<g id="graph0" class="graph" transform="scale(1 1) rotate(0) translate(4 143)">
<title>shm</title>
<g id="clust1" class="cluster">
<title>cluster_pub</title>
<path fill="#160f2e" stroke="#818cf8" d="M12,-54C12,-54 100,-54 100,-54 106,-54 112,-60 112,-66 112,-66 112,-119 112,-119 112,-125 106,-131 100,-131 100,-131 12,-131 12,-131 6,-131 0,-125 0,-119 0,-119 0,-66 0,-66 0,-60 6,-54 12,-54"/>
<text xml:space="preserve" text-anchor="middle" x="56" y="-113.7" font-family="Times,serif" font-size="14.00" fill="#c7d2fe">Publisher Process</text>
</g>
<g id="clust2" class="cluster">
<title>cluster_sub</title>
<path fill="#160f2e" stroke="#818cf8" d="M424,-54C424,-54 518.75,-54 518.75,-54 524.75,-54 530.75,-60 530.75,-66 530.75,-66 530.75,-119 530.75,-119 530.75,-125 524.75,-131 518.75,-131 518.75,-131 424,-131 424,-131 418,-131 412,-125 412,-119 412,-119 412,-66 412,-66 412,-60 418,-54 424,-54"/>
<text xml:space="preserve" text-anchor="middle" x="471.38" y="-113.7" font-family="Times,serif" font-size="14.00" fill="#c7d2fe">Subscriber Process</text>
</g>
<!-- pub -->
<g id="node1" class="node">
<title>pub</title>
<path fill="#1e1b4b" stroke="#818cf8" d="M74,-98C74,-98 37,-98 37,-98 31,-98 25,-92 25,-86 25,-86 25,-74 25,-74 25,-68 31,-62 37,-62 37,-62 74,-62 74,-62 80,-62 86,-68 86,-74 86,-74 86,-86 86,-86 86,-92 80,-98 74,-98"/>
<text xml:space="preserve" text-anchor="middle" x="55.5" y="-75.55" font-family="Helvetica,sans-Serif" font-size="11.00" fill="#c7d2fe">Publisher</text>
</g>
<!-- sub -->
<g id="node2" class="node">
<title>sub</title>
<path fill="#1e1b4b" stroke="#818cf8" d="M492.75,-98C492.75,-98 449,-98 449,-98 443,-98 437,-92 437,-86 437,-86 437,-74 437,-74 437,-68 443,-62 449,-62 449,-62 492.75,-62 492.75,-62 498.75,-62 504.75,-68 504.75,-74 504.75,-74 504.75,-86 504.75,-86 504.75,-92 498.75,-98 492.75,-98"/>
<text xml:space="preserve" text-anchor="middle" x="470.88" y="-75.55" font-family="Helvetica,sans-Serif" font-size="11.00" fill="#c7d2fe">Subscriber</text>
</g>
<!-- pub&#45;&gt;sub -->
<g id="edge2" class="edge">
<title>pub&#45;&gt;sub</title>
<path fill="none" stroke="#818cf8" stroke-dasharray="5,2" d="M86.23,-80C157.92,-80 340.66,-80 425.44,-80"/>
<polygon fill="#818cf8" stroke="#818cf8" points="425.21,-83.5 435.21,-80 425.21,-76.5 425.21,-83.5"/>
<text xml:space="preserve" text-anchor="middle" x="255.62" y="-81.75" font-family="Helvetica,sans-Serif" font-size="10.00" fill="#c7d2fe">2. send descriptor</text>
</g>
<!-- shm -->
<g id="node3" class="node">
<title>shm</title>
<path fill="#1e1b4b" stroke="#818cf8" d="M302.25,-40C302.25,-42.21 281.35,-44 255.62,-44 229.9,-44 209,-42.21 209,-40 209,-40 209,-4 209,-4 209,-1.79 229.9,0 255.62,0 281.35,0 302.25,-1.79 302.25,-4 302.25,-4 302.25,-40 302.25,-40"/>
<path fill="none" stroke="#818cf8" d="M302.25,-40C302.25,-37.79 281.35,-36 255.62,-36 229.9,-36 209,-37.79 209,-40"/>
<text xml:space="preserve" text-anchor="middle" x="255.62" y="-23.55" font-family="Helvetica,sans-Serif" font-size="11.00" fill="#c7d2fe">Shared Memory</text>
<text xml:space="preserve" text-anchor="middle" x="255.62" y="-11.55" font-family="Helvetica,sans-Serif" font-size="11.00" fill="#c7d2fe">Region</text>
</g>
<!-- pub&#45;&gt;shm -->
<g id="edge1" class="edge">
<title>pub&#45;&gt;shm</title>
<path fill="none" stroke="#818cf8" d="M86.22,-67.63C97.34,-63.25 110.14,-58.48 122,-54.75 146.4,-47.07 173.78,-40.05 197.3,-34.49"/>
<polygon fill="#818cf8" stroke="#818cf8" points="198.08,-37.9 207.03,-32.23 196.5,-31.08 198.08,-37.9"/>
<text xml:space="preserve" text-anchor="middle" x="156.5" y="-56.5" font-family="Helvetica,sans-Serif" font-size="10.00" fill="#c7d2fe">1. write payload</text>
</g>
<!-- shm&#45;&gt;sub -->
<g id="edge3" class="edge">
<title>shm&#45;&gt;sub</title>
<path fill="none" stroke="#818cf8" d="M302.54,-30.69C331.35,-36.56 369.14,-44.99 402,-54.75 409.87,-57.09 418.14,-59.88 426.1,-62.74"/>
<polygon fill="#818cf8" stroke="#818cf8" points="424.68,-65.94 435.27,-66.11 427.1,-59.37 424.68,-65.94"/>
<text xml:space="preserve" text-anchor="middle" x="361.12" y="-56.5" font-family="Helvetica,sans-Serif" font-size="10.00" fill="#c7d2fe">3. read (zero&#45;copy)</text>
</g>
</g>
</svg>
