<?xml version="1.0" encoding="UTF-8" standalone="no"?>
<!DOCTYPE svg PUBLIC "-//W3C//DTD SVG 1.1//EN"
 "http://www.w3.org/Graphics/SVG/1.1/DTD/svg11.dtd">
<!-- Generated by graphviz version 14.1.1 (20251213.1925)
 -->
<!-- Pages: 1 -->
<svg width="294pt" height="82pt"
 viewBox="0.00 0.00 294.00 82.00" xmlns="http://www.w3.org/2000/svg" xmlns:xlink="http://www.w3.org/1999/xlink">
<g id="graph0" class="graph" transform="scale(1 1) rotate(0) translate(4 78.25)">
<!-- frame -->
<g id="node1" class="node">
<title>frame</title>
<polygon fill="none" stroke="none" points="0,0 0,-74.25 286,-74.25 286,0 0,0"/>
<polygon fill="#eef2ff" stroke="none" points="2,-35.25 2,-72.25 69.75,-72.25 69.75,-35.25 2,-35.25"/>
<polygon fill="none" stroke="#4338ca" points="2,-35.25 2,-72.25 69.75,-72.25 69.75,-35.25 2,-35.25"/>
<text xml:space="preserve" text-anchor="start" x="13" y="-48.95" font-family="Helvetica,sans-Serif" font-weight="bold" font-size="14.00" fill="#312e81">Header</text>
<polygon fill="#eef2ff" stroke="none" points="69.75,-35.25 69.75,-72.25 210.25,-72.25 210.25,-35.25 69.75,-35.25"/>
<polygon fill="none" stroke="#4338ca" points="69.75,-35.25 69.75,-72.25 210.25,-72.25 210.25,-35.25 69.75,-35.25"/>
<text xml:space="preserve" text-anchor="start" x="80.75" y="-48.95" font-family="Helvetica,sans-Serif" font-weight="bold" font-size="14.00" fill="#312e81">Key Expression ID</text>
<polygon fill="#dbeafe" stroke="none" points="210.25,-35.25 210.25,-72.25 284,-72.25 284,-35.25 210.25,-35.25"/>
<polygon fill="none" stroke="#4338ca" points="210.25,-35.25 210.25,-72.25 284,-72.25 284,-35.25 210.25,-35.25"/>
<text xml:space="preserve" text-anchor="start" x="221.25" y="-48.95" font-family="Helvetica,sans-Serif" font-weight="bold" font-size="14.00" fill="#1e40af">Payload</text>
<polygon fill="none" stroke="#4338ca" points="2,-2 2,-35.25 69.75,-35.25 69.75,-2 2,-2"/>
<text xml:space="preserve" text-anchor="start" x="22.38" y="-14.75" font-family="Helvetica,sans-Serif" font-size="10.00" fill="#4b5563">1 byte</text>
<polygon fill="none" stroke="#4338ca" points="69.75,-2 69.75,-35.25 210.25,-35.25 210.25,-2 69.75,-2"/>
<text xml:space="preserve" text-anchor="start" x="104.75" y="-14.75" font-family="Helvetica,sans-Serif" font-size="10.00" fill="#4b5563">1–9 bytes (VLE)</text>
<polygon fill="none" stroke="#4338ca" points="210.25,-2 210.25,-35.25 284,-35.25 284,-2 210.25,-2"/>
<text xml:space="preserve" text-anchor="start" x="229.88" y="-14.75" font-family="Helvetica,sans-Serif" font-size="10.00" fill="#4b5563">N bytes</text>
<polygon fill="none" stroke="#4338ca" stroke-width="2" points="1,-1 1,-73.25 285,-73.25 285,-1 1,-1"/>
</g>
</g>
</svg>
