<?xml version="1.0" encoding="UTF-8" standalone="no"?>
<!DOCTYPE svg PUBLIC "-//W3C//DTD SVG 1.1//EN"
 "http://www.w3.org/Graphics/SVG/1.1/DTD/svg11.dtd">
<!-- Generated by graphviz version 14.1.1 (20251213.1925)
 -->
<!-- Title: peers Pages: 1 -->
<svg width="222pt" height="204pt"
 viewBox="0.00 0.00 222.00 204.00" xmlns="http://www.w3.org/2000/svg" xmlns:xlink="http://www.w3.org/1999/xlink">
<g id="graph0" class="graph" transform="scale(1 1) rotate(0) translate(4 200.43)">
<title>peers</title>
<!-- p1 -->
<g id="node1" class="node">
<title>p1</title>
<path fill="#eef2ff" stroke="#4338ca" stroke-width="1.5" d="M122.21,-36C122.21,-36 92.21,-36 92.21,-36 86.21,-36 80.21,-30 80.21,-24 80.21,-24 80.21,-12 80.21,-12 80.21,-6 86.21,0 92.21,0 92.21,0 122.21,0 122.21,0 128.21,0 134.21,-6 134.21,-12 134.21,-12 134.21,-24 134.21,-24 134.21,-30 128.21,-36 122.21,-36"/>
<text xml:space="preserve" text-anchor="middle" x="107.21" y="-12.97" font-family="Helvetica,sans-Serif" font-size="12.00" fill="#312e81">Peer A</text>
</g>
<!-- p2 -->
<g id="node2" class="node">
<title>p2</title>
<path fill="#eef2ff" stroke="#4338ca" stroke-width="1.5" d="M202.43,-116.21C202.43,-116.21 172.43,-116.21 172.43,-116.21 166.43,-116.21 160.43,-110.21 160.43,-104.21 160.43,-104.21 160.43,-92.21 160.43,-92.21 160.43,-86.21 166.43,-80.21 172.43,-80.21 172.43,-80.21 202.43,-80.21 202.43,-80.21 208.43,-80.21 214.43,-86.21 214.43,-92.21 214.43,-92.21 214.43,-104.21 214.43,-104.21 214.43,-110.21 208.43,-116.21 202.43,-116.21"/>
<text xml:space="preserve" text-anchor="middle" x="187.43" y="-93.19" font-family="Helvetica,sans-Serif" font-size="12.00" fill="#312e81">Peer B</text>
</g>
<!-- p1&#45;&#45;p2 -->
<g id="edge1" class="edge">
<title>p1&#45;&#45;p2</title>
<path fill="none" stroke="#4338ca" stroke-width="1.5" d="M125.82,-36.6C138.78,-49.56 155.99,-66.77 168.92,-79.71"/>
</g>
<!-- p3 -->
<g id="node3" class="node">
<title>p3</title>
<path fill="#eef2ff" stroke="#4338ca" stroke-width="1.5" d="M122.21,-196.43C122.21,-196.43 92.21,-196.43 92.21,-196.43 86.21,-196.43 80.21,-190.43 80.21,-184.43 80.21,-184.43 80.21,-172.43 80.21,-172.43 80.21,-166.43 86.21,-160.43 92.21,-160.43 92.21,-160.43 122.21,-160.43 122.21,-160.43 128.21,-160.43 134.21,-166.43 134.21,-172.43 134.21,-172.43 134.21,-184.43 134.21,-184.43 134.21,-190.43 128.21,-196.43 122.21,-196.43"/>
<text xml:space="preserve" text-anchor="middle" x="107.21" y="-173.4" font-family="Helvetica,sans-Serif" font-size="12.00" fill="#312e81">Peer C</text>
</g>
<!-- p1&#45;&#45;p3 -->
<g id="edge2" class="edge">
<title>p1&#45;&#45;p3</title>
<path fill="none" stroke="#4338ca" stroke-width="1.5" d="M107.21,-36.72C107.21,-67.63 107.21,-129 107.21,-159.83"/>
</g>
<!-- p4 -->
<g id="node4" class="node">
<title>p4</title>
<path fill="#eef2ff" stroke="#4338ca" stroke-width="1.5" d="M42,-116.21C42,-116.21 12,-116.21 12,-116.21 6,-116.21 0,-110.21 0,-104.21 0,-104.21 0,-92.21 0,-92.21 0,-86.21 6,-80.21 12,-80.21 12,-80.21 42,-80.21 42,-80.21 48,-80.21 54,-86.21 54,-92.21 54,-92.21 54,-104.21 54,-104.21 54,-110.21 48,-116.21 42,-116.21"/>
<text xml:space="preserve" text-anchor="middle" x="27" y="-93.19" font-family="Helvetica,sans-Serif" font-size="12.00" fill="#312e81">Peer D</text>
</g>
<!-- p1&#45;&#45;p4 -->
<g id="edge3" class="edge">
<title>p1&#45;&#45;p4</title>
<path fill="none" stroke="#4338ca" stroke-width="1.5" d="M88.61,-36.6C75.65,-49.56 58.44,-66.77 45.5,-79.71"/>
</g>
<!-- p2&#45;&#45;p3 -->
<g id="edge4" class="edge">
<title>p2&#45;&#45;p3</title>
<path fill="none" stroke="#4338ca" stroke-width="1.5" d="M168.82,-116.82C155.87,-129.78 138.65,-146.99 125.72,-159.92"/>
</g>
<!-- p2&#45;&#45;p4 -->
<g id="edge5" class="edge">
<title>p2&#45;&#45;p4</title>
<path fill="none" stroke="#4338ca" stroke-width="1.5" d="M159.85,-98.21C130.38,-98.21 83.93,-98.21 54.49,-98.21"/>
</g>
<!-- p3&#45;&#45;p4 -->
<g id="edge6" class="edge">
<title>p3&#45;&#45;p4</title>
<path fill="none" stroke="#4338ca" stroke-width="1.5" d="M88.61,-159.82C75.65,-146.87 58.44,-129.65 45.5,-116.72"/>
</g>
</g>
</svg>
