<?xml version="1.0" encoding="UTF-8" standalone="no"?>
<!DOCTYPE svg PUBLIC "-//W3C//DTD SVG 1.1//EN"
 "http://www.w3.org/Graphics/SVG/1.1/DTD/svg11.dtd">
<!-- Generated by graphviz version 14.1.1 (20251213.1925)
 -->
<!-- Title: pubsub Pages: 1 -->
<svg width="344pt" height="152pt"
 viewBox="0.00 0.00 344.00 152.00" xmlns="http://www.w3.org/2000/svg" xmlns:xlink="http://www.w3.org/1999/xlink">
<g id="graph0" class="graph" transform="scale(1 1) rotate(0) translate(4 148)">
<title>pubsub</title>
<!-- pub -->
<g id="node1" class="node">
<title>pub</title>
<path fill="#172554" stroke="#818cf8" stroke-width="1.5" d="M75.25,-90C75.25,-90 12,-90 12,-90 6,-90 0,-84 0,-78 0,-78 0,-66 0,-66 0,-60 6,-54 12,-54 12,-54 75.25,-54 75.25,-54 81.25,-54 87.25,-60 87.25,-66 87.25,-66 87.25,-78 87.25,-78 87.25,-84 81.25,-90 75.25,-90"/>
<text xml:space="preserve" text-anchor="middle" x="43.62" y="-73.55" font-family="Helvetica,sans-Serif" font-size="11.00" fill="#93c5fd">Publisher</text>
<text xml:space="preserve" text-anchor="middle" x="43.62" y="-61.55" font-family="Helvetica,sans-Serif" font-size="11.00" fill="#93c5fd">robots/42/pose</text>
</g>
<!-- router -->
<g id="node2" class="node">
<title>router</title>
<path fill="#2e1065" stroke="#a78bfa" stroke-width="1.5" d="M184,-90C184,-90 154,-90 154,-90 148,-90 142,-84 142,-78 142,-78 142,-66 142,-66 142,-60 148,-54 154,-54 154,-54 184,-54 184,-54 190,-54 196,-60 196,-66 196,-66 196,-78 196,-78 196,-84 190,-90 184,-90"/>
<text xml:space="preserve" text-anchor="middle" x="169" y="-67.55" font-family="Helvetica,sans-Serif" font-size="11.00" fill="#ddd6fe">Router</text>
</g>
<!-- pub&#45;&gt;router -->
<g id="edge1" class="edge">
<title>pub&#45;&gt;router</title>
<path fill="none" stroke="#818cf8" stroke-width="1.5" d="M87.78,-72C101.36,-72 116.27,-72 129.51,-72"/>
<polygon fill="#818cf8" stroke="#818cf8" stroke-width="1.5" points="129.32,-75.5 139.32,-72 129.32,-68.5 129.32,-75.5"/>
<text xml:space="preserve" text-anchor="middle" x="114.62" y="-73.2" font-family="Helvetica,sans-Serif" font-size="9.00" fill="#94a3b8">put()</text>
</g>
<!-- s1 -->
<g id="node3" class="node">
<title>s1</title>
<path fill="#1e1b4b" stroke="#818cf8" stroke-width="1.5" d="M323,-144C323,-144 269.5,-144 269.5,-144 263.5,-144 257.5,-138 257.5,-132 257.5,-132 257.5,-120 257.5,-120 257.5,-114 263.5,-108 269.5,-108 269.5,-108 323,-108 323,-108 329,-108 335,-114 335,-120 335,-120 335,-132 335,-132 335,-138 329,-144 323,-144"/>
<text xml:space="preserve" text-anchor="middle" x="296.25" y="-127.55" font-family="Helvetica,sans-Serif" font-size="11.00" fill="#c7d2fe">Subscriber A</text>
<text xml:space="preserve" text-anchor="middle" x="296.25" y="-115.55" font-family="Helvetica,sans-Serif" font-size="11.00" fill="#c7d2fe">robots/**</text>
</g>
<!-- router&#45;&gt;s1 -->
<g id="edge2" class="edge">
<title>router&#45;&gt;s1</title>
<path fill="none" stroke="#818cf8" stroke-width="1.5" d="M196.56,-83.45C210.94,-89.65 229.15,-97.5 246.01,-104.77"/>
<polygon fill="#818cf8" stroke="#818cf8" stroke-width="1.5" points="244.19,-107.8 254.76,-108.54 246.96,-101.37 244.19,-107.8"/>
<text xml:space="preserve" text-anchor="middle" x="226.38" y="-101.82" font-family="Helvetica,sans-Serif" font-size="9.00" fill="#94a3b8">match</text>
</g>
<!-- s2 -->
<g id="node4" class="node">
<title>s2</title>
<path fill="#1e1b4b" stroke="#818cf8" stroke-width="1.5" d="M323.38,-90C323.38,-90 269.12,-90 269.12,-90 263.12,-90 257.12,-84 257.12,-78 257.12,-78 257.12,-66 257.12,-66 257.12,-60 263.12,-54 269.12,-54 269.12,-54 323.38,-54 323.38,-54 329.38,-54 335.38,-60 335.38,-66 335.38,-66 335.38,-78 335.38,-78 335.38,-84 329.38,-90 323.38,-90"/>
<text xml:space="preserve" text-anchor="middle" x="296.25" y="-73.55" font-family="Helvetica,sans-Serif" font-size="11.00" fill="#c7d2fe">Subscriber B</text>
<text xml:space="preserve" text-anchor="middle" x="296.25" y="-61.55" font-family="Helvetica,sans-Serif" font-size="11.00" fill="#c7d2fe">robots/42/*</text>
</g>
<!-- router&#45;&gt;s2 -->
<g id="edge3" class="edge">
<title>router&#45;&gt;s2</title>
<path fill="none" stroke="#818cf8" stroke-width="1.5" d="M196.56,-72C210.66,-72 228.46,-72 245.05,-72"/>
<polygon fill="#818cf8" stroke="#818cf8" stroke-width="1.5" points="244.57,-75.5 254.57,-72 244.57,-68.5 244.57,-75.5"/>
<text xml:space="preserve" text-anchor="middle" x="226.38" y="-73.2" font-family="Helvetica,sans-Serif" font-size="9.00" fill="#94a3b8">match</text>
</g>
<!-- s3 -->
<g id="node5" class="node">
<title>s3</title>
<path fill="#1e1b4b" stroke="#818cf8" stroke-width="1.5" d="M323.75,-36C323.75,-36 268.75,-36 268.75,-36 262.75,-36 256.75,-30 256.75,-24 256.75,-24 256.75,-12 256.75,-12 256.75,-6 262.75,0 268.75,0 268.75,0 323.75,0 323.75,0 329.75,0 335.75,-6 335.75,-12 335.75,-12 335.75,-24 335.75,-24 335.75,-30 329.75,-36 323.75,-36"/>
<text xml:space="preserve" text-anchor="middle" x="296.25" y="-19.55" font-family="Helvetica,sans-Serif" font-size="11.00" fill="#c7d2fe">Subscriber C</text>
<text xml:space="preserve" text-anchor="middle" x="296.25" y="-7.55" font-family="Helvetica,sans-Serif" font-size="11.00" fill="#c7d2fe">**/pose</text>
</g>
<!-- router&#45;&gt;s3 -->
<g id="edge4" class="edge">
<title>router&#45;&gt;s3</title>
<path fill="none" stroke="#818cf8" stroke-width="1.5" d="M196.56,-60.55C210.68,-54.46 228.51,-46.77 245.12,-39.61"/>
<polygon fill="#818cf8" stroke="#818cf8" stroke-width="1.5" points="246.48,-42.84 254.28,-35.67 243.71,-36.41 246.48,-42.84"/>
<text xml:space="preserve" text-anchor="middle" x="226.38" y="-54.19" font-family="Helvetica,sans-Serif" font-size="9.00" fill="#94a3b8">match</text>
</g>
</g>
</svg>
