<?xml version="1.0" encoding="UTF-8" standalone="no"?>
<!DOCTYPE svg PUBLIC "-//W3C//DTD SVG 1.1//EN"
 "http://www.w3.org/Graphics/SVG/1.1/DTD/svg11.dtd">
<!-- Generated by graphviz version 14.1.1 (20251213.1925)
 -->
<!-- Title: query Pages: 1 -->
<svg width="405pt" height="104pt"
 viewBox="0.00 0.00 405.00 104.00" xmlns="http://www.w3.org/2000/svg" xmlns:xlink="http://www.w3.org/1999/xlink">
<g id="graph0" class="graph" transform="scale(1 1) rotate(0) translate(4 100)">
<title>query</title>
<!-- req -->
<g id="node1" class="node">
<title>req</title>
<path fill="#dbeafe" stroke="#1e40af" stroke-width="1.5" d="M76.75,-66C76.75,-66 12,-66 12,-66 6,-66 0,-60 0,-54 0,-54 0,-42 0,-42 0,-36 6,-30 12,-30 12,-30 76.75,-30 76.75,-30 82.75,-30 88.75,-36 88.75,-42 88.75,-42 88.75,-54 88.75,-54 88.75,-60 82.75,-66 76.75,-66"/>
<text xml:space="preserve" text-anchor="middle" x="44.38" y="-49.55" font-family="Helvetica,sans-Serif" font-size="11.00" fill="#1e3a8a">Requester</text>
<text xml:space="preserve" text-anchor="middle" x="44.38" y="-37.55" font-family="Helvetica,sans-Serif" font-size="11.00" fill="#1e3a8a">session.get(…)</text>
</g>
<!-- router -->
<g id="node2" class="node">
<title>router</title>
<path fill="#ede9fe" stroke="#7c3aed" stroke-width="1.5" d="M198.25,-66C198.25,-66 168.25,-66 168.25,-66 162.25,-66 156.25,-60 156.25,-54 156.25,-54 156.25,-42 156.25,-42 156.25,-36 162.25,-30 168.25,-30 168.25,-30 198.25,-30 198.25,-30 204.25,-30 210.25,-36 210.25,-42 210.25,-42 210.25,-54 210.25,-54 210.25,-60 204.25,-66 198.25,-66"/>
<text xml:space="preserve" text-anchor="middle" x="183.25" y="-43.55" font-family="Helvetica,sans-Serif" font-size="11.00" fill="#4c1d95">Router</text>
</g>
<!-- req&#45;&gt;router -->
<g id="edge1" class="edge">
<title>req&#45;&gt;router</title>
<path fill="none" stroke="#4338ca" stroke-width="1.5" d="M89.44,-48C106.87,-48 126.74,-48 143.61,-48"/>
<polygon fill="#4338ca" stroke="#4338ca" stroke-width="1.5" points="143.56,-51.5 153.56,-48 143.56,-44.5 143.56,-51.5"/>
<text xml:space="preserve" text-anchor="middle" x="122.5" y="-49.2" font-family="Helvetica,sans-Serif" font-size="9.00" fill="#4b5563">Get</text>
</g>
<!-- router&#45;&gt;req -->
<g id="edge6" class="edge">
<title>router&#45;&gt;req</title>
<path fill="none" stroke="#6366f1" stroke-width="1.5" stroke-dasharray="5,2" d="M155.56,-38.25C149.92,-36.59 143.95,-35.12 138.25,-34.25 126.29,-32.42 113.45,-32.81 101.25,-34.29"/>
<polygon fill="#6366f1" stroke="#6366f1" stroke-width="1.5" points="100.94,-30.8 91.57,-35.74 101.98,-37.72 100.94,-30.8"/>
<text xml:space="preserve" text-anchor="middle" x="122.5" y="-35.45" font-family="Helvetica,sans-Serif" font-size="9.00" fill="#4b5563">Replies</text>
</g>
<!-- stor -->
<g id="node3" class="node">
<title>stor</title>
<path fill="#eef2ff" stroke="#4338ca" stroke-width="1.5" d="M367.25,-96C367.25,-96 304.75,-96 304.75,-96 298.75,-96 292.75,-90 292.75,-84 292.75,-84 292.75,-72 292.75,-72 292.75,-66 298.75,-60 304.75,-60 304.75,-60 367.25,-60 367.25,-60 373.25,-60 379.25,-66 379.25,-72 379.25,-72 379.25,-84 379.25,-84 379.25,-90 373.25,-96 367.25,-96"/>
<text xml:space="preserve" text-anchor="middle" x="336" y="-79.55" font-family="Helvetica,sans-Serif" font-size="11.00" fill="#312e81">Storage</text>
<text xml:space="preserve" text-anchor="middle" x="336" y="-67.55" font-family="Helvetica,sans-Serif" font-size="11.00" fill="#312e81">(cached value)</text>
</g>
<!-- router&#45;&gt;stor -->
<g id="edge2" class="edge">
<title>router&#45;&gt;stor</title>
<path fill="none" stroke="#4338ca" stroke-width="1.5" d="M208.21,-66.54C214.42,-70.39 221.31,-73.91 228.25,-76 244.67,-80.95 263.17,-82.58 280.1,-82.65"/>
<polygon fill="#4338ca" stroke="#4338ca" stroke-width="1.5" points="279.89,-86.15 289.83,-82.48 279.77,-79.15 279.89,-86.15"/>
<text xml:space="preserve" text-anchor="middle" x="242.5" y="-82.34" font-family="Helvetica,sans-Serif" font-size="9.00" fill="#4b5563">fan&#45;out</text>
</g>
<!-- qbl -->
<g id="node4" class="node">
<title>qbl</title>
<path fill="#eef2ff" stroke="#4338ca" stroke-width="1.5" d="M385.25,-36C385.25,-36 286.75,-36 286.75,-36 280.75,-36 274.75,-30 274.75,-24 274.75,-24 274.75,-12 274.75,-12 274.75,-6 280.75,0 286.75,0 286.75,0 385.25,0 385.25,0 391.25,0 397.25,-6 397.25,-12 397.25,-12 397.25,-24 397.25,-24 397.25,-30 391.25,-36 385.25,-36"/>
<text xml:space="preserve" text-anchor="middle" x="336" y="-19.55" font-family="Helvetica,sans-Serif" font-size="11.00" fill="#312e81">Queryable</text>
<text xml:space="preserve" text-anchor="middle" x="336" y="-7.55" font-family="Helvetica,sans-Serif" font-size="11.00" fill="#312e81">(on&#45;demand compute)</text>
</g>
<!-- router&#45;&gt;qbl -->
<g id="edge3" class="edge">
<title>router&#45;&gt;qbl</title>
<path fill="none" stroke="#4338ca" stroke-width="1.5" d="M210.55,-38.32C216.32,-36.44 222.45,-34.62 228.25,-33.25 239.2,-30.65 250.9,-28.44 262.38,-26.56"/>
<polygon fill="#4338ca" stroke="#4338ca" stroke-width="1.5" points="262.64,-30.07 271.99,-25.08 261.57,-23.15 262.64,-30.07"/>
<text xml:space="preserve" text-anchor="middle" x="242.5" y="-34.45" font-family="Helvetica,sans-Serif" font-size="9.00" fill="#4b5563">fan&#45;out</text>
</g>
<!-- stor&#45;&gt;router -->
<g id="edge4" class="edge">
<title>stor&#45;&gt;router</title>
<path fill="none" stroke="#6366f1" stroke-width="1.5" stroke-dasharray="5,2" d="M292.13,-69.47C270.26,-65.12 243.87,-59.86 222.67,-55.65"/>
<polygon fill="#6366f1" stroke="#6366f1" stroke-width="1.5" points="223.57,-52.26 213.08,-53.74 222.21,-59.12 223.57,-52.26"/>
<text xml:space="preserve" text-anchor="middle" x="242.5" y="-63.3" font-family="Helvetica,sans-Serif" font-size="9.00" fill="#4b5563">Reply</text>
</g>
<!-- qbl&#45;&gt;router -->
<g id="edge5" class="edge">
<title>qbl&#45;&gt;router</title>
<path fill="none" stroke="#6366f1" stroke-width="1.5" stroke-dasharray="5,2" d="M274.05,-8.39C258.78,-7.99 242.65,-9.36 228.25,-14.25 222.73,-16.12 217.36,-19 212.37,-22.3"/>
<polygon fill="#6366f1" stroke="#6366f1" stroke-width="1.5" points="210.5,-19.33 204.58,-28.12 214.69,-24.94 210.5,-19.33"/>
<text xml:space="preserve" text-anchor="middle" x="242.5" y="-15.45" font-family="Helvetica,sans-Serif" font-size="9.00" fill="#4b5563">Reply</text>
</g>
</g>
</svg>
