<?xml version="1.0" encoding="UTF-8" standalone="no"?>
<!DOCTYPE svg PUBLIC "-//W3C//DTD SVG 1.1//EN"
 "http://www.w3.org/Graphics/SVG/1.1/DTD/svg11.dtd">
<!-- Generated by graphviz version 14.1.1 (20251213.1925)
 -->
<!-- Title: chain Pages: 1 -->
<svg width="454pt" height="44pt"
 viewBox="0.00 0.00 454.00 44.00" xmlns="http://www.w3.org/2000/svg" xmlns:xlink="http://www.w3.org/1999/xlink">
<g id="graph0" class="graph" transform="scale(1 1) rotate(0) translate(4 40)">
<title>chain</title>
<!-- mc -->
<g id="node1" class="node">
<title>mc</title>
<path fill="#1e1b4b" stroke="#818cf8" stroke-width="1.5" d="M82.75,-36C82.75,-36 12,-36 12,-36 6,-36 0,-30 0,-24 0,-24 0,-12 0,-12 0,-6 6,0 12,0 12,0 82.75,0 82.75,0 88.75,0 94.75,-6 94.75,-12 94.75,-12 94.75,-24 94.75,-24 94.75,-30 88.75,-36 82.75,-36"/>
<text xml:space="preserve" text-anchor="middle" x="47.38" y="-12.97" font-family="Helvetica,sans-Serif" font-size="12.00" fill="#c7d2fe">Microcontroller</text>
</g>
<!-- er -->
<g id="node2" class="node">
<title>er</title>
<path fill="#1e1b4b" stroke="#818cf8" stroke-width="1.5" d="M202.25,-36C202.25,-36 142.75,-36 142.75,-36 136.75,-36 130.75,-30 130.75,-24 130.75,-24 130.75,-12 130.75,-12 130.75,-6 136.75,0 142.75,0 142.75,0 202.25,0 202.25,0 208.25,0 214.25,-6 214.25,-12 214.25,-12 214.25,-24 214.25,-24 214.25,-30 208.25,-36 202.25,-36"/>
<text xml:space="preserve" text-anchor="middle" x="172.5" y="-12.97" font-family="Helvetica,sans-Serif" font-size="12.00" fill="#c7d2fe">Edge Router</text>
</g>
<!-- mc&#45;&#45;er -->
<g id="edge1" class="edge">
<title>mc&#45;&#45;er</title>
<path fill="none" stroke="#818cf8" stroke-width="1.8" d="M95.27,-18C106.83,-18 119.11,-18 130.37,-18"/>
</g>
<!-- cr -->
<g id="node3" class="node">
<title>cr</title>
<path fill="#1e1b4b" stroke="#818cf8" stroke-width="1.5" d="M325.5,-36C325.5,-36 262.25,-36 262.25,-36 256.25,-36 250.25,-30 250.25,-24 250.25,-24 250.25,-12 250.25,-12 250.25,-6 256.25,0 262.25,0 262.25,0 325.5,0 325.5,0 331.5,0 337.5,-6 337.5,-12 337.5,-12 337.5,-24 337.5,-24 337.5,-30 331.5,-36 325.5,-36"/>
<text xml:space="preserve" text-anchor="middle" x="293.88" y="-12.97" font-family="Helvetica,sans-Serif" font-size="12.00" fill="#c7d2fe">Cloud Router</text>
</g>
<!-- er&#45;&#45;cr -->
<g id="edge2" class="edge">
<title>er&#45;&#45;cr</title>
<path fill="none" stroke="#818cf8" stroke-width="1.8" d="M214.92,-18C226.1,-18 238.22,-18 249.5,-18"/>
</g>
<!-- ca -->
<g id="node4" class="node">
<title>ca</title>
<path fill="#1e1b4b" stroke="#818cf8" stroke-width="1.5" d="M433.75,-36C433.75,-36 385.5,-36 385.5,-36 379.5,-36 373.5,-30 373.5,-24 373.5,-24 373.5,-12 373.5,-12 373.5,-6 379.5,0 385.5,0 385.5,0 433.75,0 433.75,0 439.75,0 445.75,-6 445.75,-12 445.75,-12 445.75,-24 445.75,-24 445.75,-30 439.75,-36 433.75,-36"/>
<text xml:space="preserve" text-anchor="middle" x="409.62" y="-12.97" font-family="Helvetica,sans-Serif" font-size="12.00" fill="#c7d2fe">Cloud App</text>
</g>
<!-- cr&#45;&#45;ca -->
<g id="edge3" class="edge">
<title>cr&#45;&#45;ca</title>
<path fill="none" stroke="#818cf8" stroke-width="1.8" d="M338.2,-18C349.63,-18 361.83,-18 372.81,-18"/>
</g>
</g>
</svg>
