<?xml version="1.0" encoding="UTF-8" standalone="no"?>
<!DOCTYPE svg PUBLIC "-//W3C//DTD SVG 1.1//EN"
 "http://www.w3.org/Graphics/SVG/1.1/DTD/svg11.dtd">
<!-- Generated by graphviz version 14.1.1 (20251213.1925)
 -->
<!-- Title: mesh Pages: 1 -->
<svg width="215pt" height="188pt"
 viewBox="0.00 0.00 215.00 188.00" xmlns="http://www.w3.org/2000/svg" xmlns:xlink="http://www.w3.org/1999/xlink">
<g id="graph0" class="graph" transform="scale(1 1) rotate(0) translate(4 184)">
<title>mesh</title>
<!-- a -->
<g id="node1" class="node">
<title>a</title>
<path fill="#eef2ff" stroke="#4338ca" stroke-width="1.5" d="M180.88,-180C180.88,-180 118.38,-180 118.38,-180 112.38,-180 106.38,-174 106.38,-168 106.38,-168 106.38,-156 106.38,-156 106.38,-150 112.38,-144 118.38,-144 118.38,-144 180.88,-144 180.88,-144 186.88,-144 192.88,-150 192.88,-156 192.88,-156 192.88,-168 192.88,-168 192.88,-174 186.88,-180 180.88,-180"/>
<text xml:space="preserve" text-anchor="middle" x="149.62" y="-156.97" font-family="Helvetica,sans-Serif" font-size="12.00" fill="#312e81">Site A Router</text>
</g>
<!-- b -->
<g id="node2" class="node">
<title>b</title>
<path fill="#eef2ff" stroke="#4338ca" stroke-width="1.5" d="M75.25,-108C75.25,-108 12,-108 12,-108 6,-108 0,-102 0,-96 0,-96 0,-84 0,-84 0,-78 6,-72 12,-72 12,-72 75.25,-72 75.25,-72 81.25,-72 87.25,-78 87.25,-84 87.25,-84 87.25,-96 87.25,-96 87.25,-102 81.25,-108 75.25,-108"/>
<text xml:space="preserve" text-anchor="middle" x="43.62" y="-84.97" font-family="Helvetica,sans-Serif" font-size="12.00" fill="#312e81">Site B Router</text>
</g>
<!-- a&#45;&#45;b -->
<g id="edge1" class="edge">
<title>a&#45;&#45;b</title>
<path fill="none" stroke="#4338ca" stroke-width="1.8" d="M122.88,-143.34C106.81,-132.72 86.43,-119.27 70.36,-108.66"/>
</g>
<!-- c -->
<g id="node3" class="node">
<title>c</title>
<path fill="#eef2ff" stroke="#4338ca" stroke-width="1.5" d="M181.62,-108C181.62,-108 117.62,-108 117.62,-108 111.62,-108 105.62,-102 105.62,-96 105.62,-96 105.62,-84 105.62,-84 105.62,-78 111.62,-72 117.62,-72 117.62,-72 181.62,-72 181.62,-72 187.62,-72 193.62,-78 193.62,-84 193.62,-84 193.62,-96 193.62,-96 193.62,-102 187.62,-108 181.62,-108"/>
<text xml:space="preserve" text-anchor="middle" x="149.62" y="-84.97" font-family="Helvetica,sans-Serif" font-size="12.00" fill="#312e81">Site C Router</text>
</g>
<!-- a&#45;&#45;c -->
<g id="edge2" class="edge">
<title>a&#45;&#45;c</title>
<path fill="none" stroke="#4338ca" stroke-width="1.8" d="M149.62,-143.34C149.62,-132.64 149.62,-119.06 149.62,-108.42"/>
</g>
<!-- d -->
<g id="node4" class="node">
<title>d</title>
<path fill="#eef2ff" stroke="#4338ca" stroke-width="1.5" d="M181.62,-36C181.62,-36 117.62,-36 117.62,-36 111.62,-36 105.62,-30 105.62,-24 105.62,-24 105.62,-12 105.62,-12 105.62,-6 111.62,0 117.62,0 117.62,0 181.62,0 181.62,0 187.62,0 193.62,-6 193.62,-12 193.62,-12 193.62,-24 193.62,-24 193.62,-30 187.62,-36 181.62,-36"/>
<text xml:space="preserve" text-anchor="middle" x="149.62" y="-12.97" font-family="Helvetica,sans-Serif" font-size="12.00" fill="#312e81">Site D Router</text>
</g>
<!-- a&#45;&#45;d -->
<g id="edge5" class="edge">
<title>a&#45;&#45;d</title>
<path fill="none" stroke="#4338ca" stroke-width="1.8" d="M174.66,-143.3C185.42,-134.14 196.85,-121.95 202.62,-108 208.75,-93.22 208.75,-86.78 202.62,-72 196.85,-58.05 185.42,-45.86 174.66,-36.7"/>
</g>
<!-- b&#45;&#45;d -->
<g id="edge3" class="edge">
<title>b&#45;&#45;d</title>
<path fill="none" stroke="#4338ca" stroke-width="1.8" d="M70.37,-71.34C86.44,-60.72 106.82,-47.27 122.89,-36.66"/>
</g>
<!-- c&#45;&#45;d -->
<g id="edge4" class="edge">
<title>c&#45;&#45;d</title>
<path fill="none" stroke="#4338ca" stroke-width="1.8" d="M149.62,-71.34C149.62,-60.64 149.62,-47.06 149.62,-36.42"/>
</g>
</g>
</svg>
