<?xml version="1.0" encoding="UTF-8" standalone="no"?>
<!DOCTYPE svg PUBLIC "-//W3C//DTD SVG 1.1//EN"
 "http://www.w3.org/Graphics/SVG/1.1/DTD/svg11.dtd">
<!-- Generated by graphviz version 14.1.1 (20251213.1925)
 -->
<!-- Title: storage Pages: 1 -->
<svg width="426pt" height="104pt"
 viewBox="0.00 0.00 426.00 104.00" xmlns="http://www.w3.org/2000/svg" xmlns:xlink="http://www.w3.org/1999/xlink">
<g id="graph0" class="graph" transform="scale(1 1) rotate(0) translate(4 100)">
<title>storage</title>
<!-- pub -->
<g id="node1" class="node">
<title>pub</title>
<path fill="#eef2ff" stroke="#4338ca" stroke-width="1.5" d="M57.25,-96C57.25,-96 20.25,-96 20.25,-96 14.25,-96 8.25,-90 8.25,-84 8.25,-84 8.25,-72 8.25,-72 8.25,-66 14.25,-60 20.25,-60 20.25,-60 57.25,-60 57.25,-60 63.25,-60 69.25,-66 69.25,-72 69.25,-72 69.25,-84 69.25,-84 69.25,-90 63.25,-96 57.25,-96"/>
<text xml:space="preserve" text-anchor="middle" x="38.75" y="-73.55" font-family="Helvetica,sans-Serif" font-size="11.00" fill="#312e81">Publisher</text>
</g>
<!-- router -->
<g id="node3" class="node">
<title>router</title>
<path fill="#eef2ff" stroke="#4338ca" stroke-width="1.5" d="M243.5,-76C243.5,-76 208.75,-76 208.75,-76 202.75,-76 196.75,-70 196.75,-64 196.75,-64 196.75,-52 196.75,-52 196.75,-46 202.75,-40 208.75,-40 208.75,-40 243.5,-40 243.5,-40 249.5,-40 255.5,-46 255.5,-52 255.5,-52 255.5,-64 255.5,-64 255.5,-70 249.5,-76 243.5,-76"/>
<text xml:space="preserve" text-anchor="middle" x="226.12" y="-59.55" font-family="Helvetica,sans-Serif" font-size="11.00" fill="#312e81">Router</text>
<text xml:space="preserve" text-anchor="middle" x="226.12" y="-47.55" font-family="Helvetica,sans-Serif" font-size="11.00" fill="#312e81">(zenohd)</text>
</g>
<!-- pub&#45;&gt;router -->
<g id="edge1" class="edge">
<title>pub&#45;&gt;router</title>
<path fill="none" stroke="#4338ca" stroke-width="1.5" d="M69.95,-74.74C101.01,-71.39 149.61,-66.15 184.14,-62.42"/>
<polygon fill="#4338ca" stroke="#4338ca" stroke-width="1.5" points="184.34,-65.92 193.91,-61.37 183.59,-58.96 184.34,-65.92"/>
<text xml:space="preserve" text-anchor="middle" x="137.12" y="-72.73" font-family="Helvetica,sans-Serif" font-size="9.00" fill="#4b5563">put(sensors/**/temp)</text>
</g>
<!-- app -->
<g id="node2" class="node">
<title>app</title>
<path fill="#eef2ff" stroke="#4338ca" stroke-width="1.5" d="M65.5,-36C65.5,-36 12,-36 12,-36 6,-36 0,-30 0,-24 0,-24 0,-12 0,-12 0,-6 6,0 12,0 12,0 65.5,0 65.5,0 71.5,0 77.5,-6 77.5,-12 77.5,-12 77.5,-24 77.5,-24 77.5,-30 71.5,-36 65.5,-36"/>
<text xml:space="preserve" text-anchor="middle" x="38.75" y="-19.55" font-family="Helvetica,sans-Serif" font-size="11.00" fill="#312e81">Requester</text>
<text xml:space="preserve" text-anchor="middle" x="38.75" y="-7.55" font-family="Helvetica,sans-Serif" font-size="11.00" fill="#312e81">session.get()</text>
</g>
<!-- app&#45;&gt;router -->
<g id="edge3" class="edge">
<title>app&#45;&gt;router</title>
<path fill="none" stroke="#4338ca" stroke-width="1.5" d="M78.16,-26.29C109.15,-32.97 152.64,-42.36 184.26,-49.18"/>
<polygon fill="#4338ca" stroke="#4338ca" stroke-width="1.5" points="183.44,-52.59 193.95,-51.27 184.92,-45.74 183.44,-52.59"/>
<text xml:space="preserve" text-anchor="middle" x="137.12" y="-48.47" font-family="Helvetica,sans-Serif" font-size="9.00" fill="#4b5563">get(sensors/**/temp)</text>
</g>
<!-- store -->
<g id="node4" class="node">
<title>store</title>
<path fill="#dbeafe" stroke="#1e40af" stroke-width="1.5" d="M417.75,-46C417.75,-48.21 405.59,-50 390.62,-50 375.66,-50 363.5,-48.21 363.5,-46 363.5,-46 363.5,-10 363.5,-10 363.5,-7.79 375.66,-6 390.62,-6 405.59,-6 417.75,-7.79 417.75,-10 417.75,-10 417.75,-46 417.75,-46"/>
<path fill="none" stroke="#1e40af" stroke-width="1.5" d="M417.75,-46C417.75,-43.79 405.59,-42 390.62,-42 375.66,-42 363.5,-43.79 363.5,-46"/>
<text xml:space="preserve" text-anchor="middle" x="390.62" y="-29.55" font-family="Helvetica,sans-Serif" font-size="11.00" fill="#1e3a8a">Storage</text>
<text xml:space="preserve" text-anchor="middle" x="390.62" y="-17.55" font-family="Helvetica,sans-Serif" font-size="11.00" fill="#1e3a8a">Plugin</text>
</g>
<!-- router&#45;&gt;store -->
<g id="edge2" class="edge">
<title>router&#45;&gt;store</title>
<path fill="none" stroke="#6366f1" stroke-width="1.5" stroke-dasharray="5,2" d="M256.18,-52.64C282.7,-47.74 322.08,-40.47 351.2,-35.09"/>
<polygon fill="#6366f1" stroke="#6366f1" stroke-width="1.5" points="351.55,-38.59 360.75,-33.33 350.28,-31.71 351.55,-38.59"/>
<text xml:space="preserve" text-anchor="middle" x="309.5" y="-50.34" font-family="Helvetica,sans-Serif" font-size="9.00" fill="#4b5563">intercept + persist</text>
</g>
<!-- store&#45;&gt;app -->
<g id="edge4" class="edge">
<title>store&#45;&gt;app</title>
<path fill="none" stroke="#6366f1" stroke-width="1.5" stroke-dasharray="5,2" d="M362.92,-26.38C335.86,-24.8 292.78,-22.47 255.5,-21.25 198.81,-19.4 133.71,-18.6 89.97,-18.26"/>
<polygon fill="#6366f1" stroke="#6366f1" stroke-width="1.5" points="90.25,-14.76 80.22,-18.19 90.2,-21.76 90.25,-14.76"/>
<text xml:space="preserve" text-anchor="middle" x="226.12" y="-22.45" font-family="Helvetica,sans-Serif" font-size="9.00" fill="#4b5563">stored replies</text>
</g>
</g>
</svg>
